{"asset":{"version":"2.0","generator":"Blockbench 4.9.4 glTF exporter"},"scenes":[{"nodes":[9],"name":"blockbench_export"}],"scene":0,"nodes":[{"name":"name1","mesh":0},{"name":"Ring","children":[0]},{"rotation":[-8.659560562354935e-17,-0.7071067811865474,-0.7071067811865477,6.162975822039155e-33],"name":"Star","mesh":1},{"rotation":[-0.7071067811865475,0,0,0.7071067811865476],"name":"circle","mesh":2},{"name":"Glow","children":[3]},{"name":"Star","children":[2,4]},{"rotation":[-0.704416013510257,-0.061628416153320514,0.06162841727911811,0.7044160392952602],"name":"tube","mesh":3},{"translation":[-1.431146867680866e-17,0,-6.765421556309548e-17],"name":"Segmented_part","children":[6]},{"name":"Root","children":[1,5,7]},{"children":[8]}],"bufferViews":[{"buffer":0,"byteOffset":0,"byteLength":23040,"target":34962,"byteStride":12},{"buffer":0,"byteOffset":23040,"byteLength":23040,"target":34962,"byteStride":12},{"buffer":0,"byteOffset":46080,"byteLength":15360,"target":34962,"byteStride":8},{"buffer":0,"byteOffset":61440,"byteLength":3840,"target":34963},{"buffer":0,"byteOffset":65280,"byteLength":720,"target":34962,"byteStride":12},{"buffer":0,"byteOffset":66000,"byteLength":720,"target":34962,"byteStride":12},{"buffer":0,"byteOffset":66720,"byteLength":480,"target":34962,"byteStride":8},{"buffer":0,"byteOffset":67200,"byteLength":120,"target":34963},{"buffer":0,"byteOffset":67320,"byteLength":432,"target":34962,"byteStride":12},{"buffer":0,"byteOffset":67752,"byteLength":432,"target":34962,"byteStride":12},{"buffer":0,"byteOffset":68184,"byteLength":288,"target":34962,"byteStride":8},{"buffer":0,"byteOffset":68472,"byteLength":72,"target":34963},{"buffer":0,"byteOffset":68544,"byteLength":2688,"target":34962,"byteStride":12},{"buffer":0,"byteOffset":71232,"byteLength":2688,"target":34962,"byteStride":12},{"buffer":0,"byteOffset":73920,"byteLength":1792,"target":34962,"byteStride":8},{"buffer":0,"byteOffset":75712,"byteLength":672,"target":34963},{"buffer":0,"byteOffset":76384,"byteLength":12},{"buffer":0,"byteOffset":76396,"byteLength":48},{"buffer":0,"byteOffset":76444,"byteLength":12},{"buffer":0,"byteOffset":76456,"byteLength":48},{"buffer":0,"byteOffset":76504,"byteLength":12},{"buffer":0,"byteOffset":76516,"byteLength":48},{"buffer":0,"byteOffset":76564,"byteLength":12},{"buffer":0,"byteOffset":76576,"byteLength":36},{"buffer":0,"byteOffset":76612,"byteLength":24},{"buffer":0,"byteOffset":76636,"byteLength":96},{"buffer":0,"byteOffset":76732,"byteLength":20},{"buffer":0,"byteOffset":76752,"byteLength":60},{"buffer":0,"byteOffset":76812,"byteLength":24},{"buffer":0,"byteOffset":76836,"byteLength":96},{"buffer":0,"byteOffset":76932,"byteLength":16},{"buffer":0,"byteOffset":76948,"byteLength":48},{"buffer":0,"byteOffset":76996,"byteLength":24},{"buffer":0,"byteOffset":77020,"byteLength":96},{"buffer":0,"byteOffset":77116,"byteLength":12},{"buffer":0,"byteOffset":77128,"byteLength":36}],"buffers":[{"byteLength":77164,"uri":"data:application/octet-stream;base64,"}],"accessors":[{"bufferView":0,"componentType":5126,"count":1920,"max":[0.8125,0.8124998807907104,0.1410018354654312],"min":[-0.8125,-0.8124998807907104,-0.14100167155265808],"type":"VEC3"},{"bufferView":1,"componentType":5126,"count":1920,"max":[0.9807851314544678,0.9807853698730469,0.9977275729179382],"min":[-0.9807851314544678,-0.9807853698730469,-0.9977274537086487],"type":"VEC3"},{"bufferView":2,"componentType":5126,"count":1920,"max":[0.6499996185302734,0.9833333492279053],"min":[0.01666712947189808,0.01666659116744995],"type":"VEC2"},{"bufferView":3,"componentType":5123,"count":1920,"max":[1919],"min":[0],"type":"SCALAR"},{"bufferView":4,"componentType":5126,"count":60,"max":[0.33731985092163086,0.125,0.366193562746048],"min":[-0.33825063705444336,-0.125,-0.25184041261672974],"type":"VEC3"},{"bufferView":5,"componentType":5126,"count":60,"max":[0.778274655342102,0.6123495101928711,0.7953795194625854],"min":[-0.7668523192405701,-0.6055435538291931,-0.7089329361915588],"type":"VEC3"},{"bufferView":6,"componentType":5126,"count":60,"max":[1,0.9930340051651001],"min":[0,0],"type":"VEC2"},{"bufferView":7,"componentType":5123,"count":60,"max":[59],"min":[0],"type":"SCALAR"},{"bufferView":8,"componentType":5126,"count":36,"max":[0.5,0,0.5],"min":[-0.5,0,-0.5],"type":"VEC3"},{"bufferView":9,"componentType":5126,"count":36,"max":[0,1,0],"min":[0,1,0],"type":"VEC3"},{"bufferView":10,"componentType":5126,"count":36,"max":[0.9862228631973267,0.9862228631973267],"min":[0,0],"type":"VEC2"},{"bufferView":11,"componentType":5123,"count":36,"max":[35],"min":[0],"type":"SCALAR"},{"bufferView":12,"componentType":5126,"count":224,"max":[0.5,0.0625,0.5],"min":[-0.5,-0.0625,-0.5],"type":"VEC3"},{"bufferView":13,"componentType":5126,"count":224,"max":[0.9807852506637573,1,0.9807852506637573],"min":[-0.9807852506637573,-1,-0.9807852506637573],"type":"VEC3"},{"bufferView":14,"componentType":5126,"count":224,"max":[1,1.0625499486923218],"min":[-0.019348522648215294,-0.033812761306762695],"type":"VEC2"},{"bufferView":15,"componentType":5123,"count":336,"max":[223],"min":[0],"type":"SCALAR"},{"bufferView":16,"componentType":5126,"count":3,"max":[1],"min":[0],"type":"SCALAR"},{"bufferView":17,"componentType":5126,"count":3,"max":[0,0,0,1],"min":[0,-0.9997619986534119,0,0.02181488461792469],"type":"VEC4"},{"bufferView":18,"componentType":5126,"count":3,"max":[1],"min":[0],"type":"SCALAR"},{"bufferView":19,"componentType":5126,"count":3,"max":[0,0,1,1],"min":[0,0,0,6.123234262925839e-17],"type":"VEC4"},{"bufferView":20,"componentType":5126,"count":3,"max":[1],"min":[0],"type":"SCALAR"},{"bufferView":21,"componentType":5126,"count":3,"max":[0,1,0,1],"min":[0,0,0,6.123234262925839e-17],"type":"VEC4"},{"bufferView":22,"componentType":5126,"count":3,"max":[1],"min":[0],"type":"SCALAR"},{"bufferView":23,"componentType":5126,"count":3,"max":[1.100000023841858,1.100000023841858,1],"min":[1,1,1],"type":"VEC3"},{"bufferView":24,"componentType":5126,"count":6,"max":[1],"min":[0],"type":"SCALAR"},{"bufferView":25,"componentType":5126,"count":6,"max":[0,0.9510565400123596,0,1],"min":[0,-0.9510565400123596,0,-0.80901700258255],"type":"VEC4"},{"bufferView":26,"componentType":5126,"count":5,"max":[1],"min":[0],"type":"SCALAR"},{"bufferView":27,"componentType":5126,"count":5,"max":[1,1,1],"min":[0,0,0],"type":"VEC3"},{"bufferView":28,"componentType":5126,"count":6,"max":[1],"min":[0],"type":"SCALAR"},{"bufferView":29,"componentType":5126,"count":6,"max":[0,0,0.9510565400123596,1],"min":[0,0,-0.9510565400123596,-0.80901700258255],"type":"VEC4"},{"bufferView":30,"componentType":5126,"count":4,"max":[0.75],"min":[0],"type":"SCALAR"},{"bufferView":31,"componentType":5126,"count":4,"max":[1.2999999523162842,1.2999999523162842,1.2999999523162842],"min":[0,0,0],"type":"VEC3"},{"bufferView":32,"componentType":5126,"count":6,"max":[1],"min":[0],"type":"SCALAR"},{"bufferView":33,"componentType":5126,"count":6,"max":[0,0,0.9510565400123596,1],"min":[0,0,-0.9510565400123596,-0.80901700258255],"type":"VEC4"},{"bufferView":34,"componentType":5126,"count":3,"max":[0.5],"min":[0],"type":"SCALAR"},{"bufferView":35,"componentType":5126,"count":3,"max":[1.2999999523162842,1.2999999523162842,1.2999999523162842],"min":[0,0,0],"type":"VEC3"}],"materials":[{"pbrMetallicRoughness":{"metallicFactor":0,"roughnessFactor":1,"baseColorTexture":{"index":0}},"alphaMode":"MASK","alphaCutoff":0.05,"doubleSided":true},{"pbrMetallicRoughness":{"metallicFactor":0,"roughnessFactor":1,"baseColorTexture":{"index":1}},"alphaMode":"MASK","alphaCutoff":0.05,"doubleSided":true},{"pbrMetallicRoughness":{"metallicFactor":0,"roughnessFactor":1,"baseColorTexture":{"index":2}},"alphaMode":"MASK","alphaCutoff":0.05,"doubleSided":true},{"pbrMetallicRoughness":{"metallicFactor":0,"roughnessFactor":1,"baseColorTexture":{"index":3}},"alphaMode":"MASK","alphaCutoff":0.05,"doubleSided":true}],"textures":[{"sampler":0,"source":0},{"sampler":1,"source":1},{"sampler":2,"source":2},{"sampler":3,"source":3}],"samplers":[{"magFilter":9728,"minFilter":9728,"wrapS":33071,"wrapT":33071},{"magFilter":9728,"minFilter":9728,"wrapS":33071,"wrapT":33071},{"magFilter":9728,"minFilter":9728,"wrapS":33071,"wrapT":33071},{"magFilter":9728,"minFilter":9728,"wrapS":33071,"wrapT":33071}],"images":[{"mimeType":"image/png","uri":"data:image/png;base64,"},{"mimeType":"image/png","uri":"data:image/png;base64,"},{"mimeType":"image/png","uri":"data:image/png;base64,"},{"mimeType":"image/png","uri":"data:image/png;base64,"}],"meshes":[{"primitives":[{"mode":4,"attributes":{"POSITION":0,"NORMAL":1,"TEXCOORD_0":2},"indices":3,"material":0}]},{"primitives":[{"mode":4,"attributes":{"POSITION":4,"NORMAL":5,"TEXCOORD_0":6},"indices":7,"material":1}]},{"primitives":[{"mode":4,"attributes":{"POSITION":8,"NORMAL":9,"TEXCOORD_0":10},"indices":11,"material":2}]},{"primitives":[{"mode":4,"attributes":{"POSITION":12,"NORMAL":13,"TEXCOORD_0":14},"indices":15,"material":3}]}],"animations":[{"name":"Idle ","samplers":[{"input":16,"output":17,"interpolation":"LINEAR"},{"input":18,"output":19,"interpolation":"LINEAR"},{"input":20,"output":21,"interpolation":"LINEAR"},{"input":22,"output":23,"interpolation":"LINEAR"}],"channels":[{"sampler":0,"target":{"node":5,"path":"rotation"}},{"sampler":1,"target":{"node":7,"path":"rotation"}},{"sampler":2,"target":{"node":1,"path":"rotation"}},{"sampler":3,"target":{"node":4,"path":"scale"}}]},{"name":"Action","samplers":[{"input":24,"output":25,"interpolation":"LINEAR"},{"input":26,"output":27,"interpolation":"LINEAR"},{"input":28,"output":29,"interpolation":"LINEAR"},{"input":30,"output":31,"interpolation":"LINEAR"},{"input":32,"output":33,"interpolation":"LINEAR"},{"input":34,"output":35,"interpolation":"LINEAR"}],"channels":[{"sampler":0,"target":{"node":5,"path":"rotation"}},{"sampler":1,"target":{"node":5,"path":"scale"}},{"sampler":2,"target":{"node":7,"path":"rotation"}},{"sampler":3,"target":{"node":7,"path":"scale"}},{"sampler":4,"target":{"node":1,"path":"rotation"}},{"sampler":5,"target":{"node":1,"path":"scale"}}]}]}